<svg width="24" height="24" viewBox="0 0 29 25" fill="none" xmlns="http://www.w3.org/2000/svg">
<path d="M14.7888 25L12.8732 23.2289C10.6493 21.1626 8.81073 19.3801 7.35751 17.8815C5.90428 16.3828 4.74831 15.0375 3.88958 13.8454C3.03086 12.6533 2.43086 11.5577 2.08957 10.5586C1.74828 9.55949 1.57764 8.53769 1.57764 7.49319C1.57764 5.35876 2.27122 3.57629 3.65839 2.14578C5.04556 0.715259 6.77401 0 8.84376 0C9.98872 0 11.0786 0.249773 12.1135 0.749319C13.1484 1.24886 14.0401 1.95277 14.7888 2.86104C15.5374 1.95277 16.4291 1.24886 17.464 0.749319C18.4989 0.249773 19.5888 0 20.7338 0C22.8035 0 24.532 0.715259 25.9191 2.14578C27.3063 3.57629 27.9999 5.35876 27.9999 7.49319C27.9999 8.53769 27.8293 9.55949 27.488 10.5586C27.1467 11.5577 26.5467 12.6533 25.6879 13.8454C24.8292 15.0375 23.6733 16.3828 22.22 17.8815C20.7668 19.3801 18.9283 21.1626 16.7044 23.2289L14.7888 25ZM14.7888 21.3215C16.9025 19.3688 18.642 17.6941 20.0072 16.2977C21.3723 14.9012 22.4512 13.6864 23.2439 12.6533C24.0366 11.6201 24.587 10.7005 24.8953 9.89441C25.2035 9.08833 25.3577 8.28792 25.3577 7.49319C25.3577 6.13079 24.9173 4.99546 24.0366 4.08719C23.1558 3.17893 22.0549 2.7248 20.7338 2.7248C19.6989 2.7248 18.7411 3.02566 17.8604 3.62738C16.9796 4.22911 16.3741 4.99546 16.0438 5.92643H13.5337C13.2034 4.99546 12.5979 4.22911 11.7172 3.62738C10.8364 3.02566 9.87863 2.7248 8.84376 2.7248C7.52264 2.7248 6.42172 3.17893 5.54098 4.08719C4.66023 4.99546 4.21986 6.13079 4.21986 7.49319C4.21986 8.28792 4.37399 9.08833 4.68225 9.89441C4.99051 10.7005 5.54098 11.6201 6.33364 12.6533C7.12631 13.6864 8.20522 14.9012 9.57037 16.2977C10.9355 17.6941 12.675 19.3688 14.7888 21.3215Z" fill="#60646B"/>
</svg>
