<svg 
  xmlns="http://www.w3.org/2000/svg" 
  width="29" 
  height="25" 
  viewBox="0 0 29 25" 
  fill="#ff0909"
  style="fill: #ff0909; fill-opacity: 1;"
>
  <path d="M14.7888 25L12.8732 23.2289C10.6493 21.1626 8.81073 19.3801 7.35751 17.8815C5.90428 16.3828 4.74831 15.0375 3.88958 13.8454C3.03086 12.6533 2.43086 11.5577 2.08957 10.5586C1.74828 9.55949 1.57764 8.53769 1.57764 7.49319C1.57764 5.35876 2.27122 3.57629 3.65839 2.14578C5.04556 0.715259 6.77401 0 8.84376 0C9.98872 0 11.0786 0.249773 12.1135 0.749319C13.1484 1.24886 14.0401 1.95277 14.7888 2.86104C15.5374 1.95277 16.4291 1.24886 17.464 0.749319C18.4989 0.249773 19.5888 0 20.7338 0C22.8035 0 24.532 0.715259 25.9191 2.14578C27.3063 3.57629 27.9999 5.35876 27.9999 7.49319C27.9999 8.53769 27.8293 9.55949 27.488 10.5586C27.1467 11.5577 26.5467 12.6533 25.6879 13.8454C24.8292 15.0375 23.6733 16.3828 22.22 17.8815C20.7668 19.3801 18.9283 21.1626 16.7044 23.2289L14.7888 25Z" 
    fill="#ff0909"
    style="fill: #ff0909; fill-opacity: 1;"
  />
</svg>